<svg id="visual" viewBox="0 0 900 600" width="900" height="600" xmlns="http://www.w3.org/2000/svg" xmlns:xlink="http://www.w3.org/1999/xlink" version="1.1"><rect x="0" y="0" width="900" height="600" fill="#283618"></rect><path d="M0 436L16.7 435.2C33.3 434.3 66.7 432.7 100 434.3C133.3 436 166.7 441 200 448.5C233.3 456 266.7 466 300 464.3C333.3 462.7 366.7 449.3 400 441.8C433.3 434.3 466.7 432.7 500 434.3C533.3 436 566.7 441 600 446C633.3 451 666.7 456 700 449C733.3 442 766.7 423 800 422.2C833.3 421.3 866.7 438.7 883.3 447.3L900 456L900 601L883.3 601C866.7 601 833.3 601 800 601C766.7 601 733.3 601 700 601C666.7 601 633.3 601 600 601C566.7 601 533.3 601 500 601C466.7 601 433.3 601 400 601C366.7 601 333.3 601 300 601C266.7 601 233.3 601 200 601C166.7 601 133.3 601 100 601C66.7 601 33.3 601 16.7 601L0 601Z" fill="#fefae0"></path><path d="M0 488L16.7 482.5C33.3 477 66.7 466 100 463.3C133.3 460.7 166.7 466.3 200 473C233.3 479.7 266.7 487.3 300 491.7C333.3 496 366.7 497 400 487C433.3 477 466.7 456 500 446.7C533.3 437.3 566.7 439.7 600 450C633.3 460.3 666.7 478.7 700 485.5C733.3 492.3 766.7 487.7 800 488.2C833.3 488.7 866.7 494.3 883.3 497.2L900 500L900 601L883.3 601C866.7 601 833.3 601 800 601C766.7 601 733.3 601 700 601C666.7 601 633.3 601 600 601C566.7 601 533.3 601 500 601C466.7 601 433.3 601 400 601C366.7 601 333.3 601 300 601C266.7 601 233.3 601 200 601C166.7 601 133.3 601 100 601C66.7 601 33.3 601 16.7 601L0 601Z" fill="#f5dda3"></path><path d="M0 522L16.7 519.2C33.3 516.3 66.7 510.7 100 505.5C133.3 500.3 166.7 495.7 200 498.7C233.3 501.7 266.7 512.3 300 514C333.3 515.7 366.7 508.3 400 500.2C433.3 492 466.7 483 500 482.3C533.3 481.7 566.7 489.3 600 493.3C633.3 497.3 666.7 497.7 700 500C733.3 502.3 766.7 506.7 800 502.5C833.3 498.3 866.7 485.7 883.3 479.3L900 473L900 601L883.3 601C866.7 601 833.3 601 800 601C766.7 601 733.3 601 700 601C666.7 601 633.3 601 600 601C566.7 601 533.3 601 500 601C466.7 601 433.3 601 400 601C366.7 601 333.3 601 300 601C266.7 601 233.3 601 200 601C166.7 601 133.3 601 100 601C66.7 601 33.3 601 16.7 601L0 601Z" fill="#f4bb6a"></path><path d="M0 537L16.7 537.3C33.3 537.7 66.7 538.3 100 539.3C133.3 540.3 166.7 541.7 200 538.7C233.3 535.7 266.7 528.3 300 525C333.3 521.7 366.7 522.3 400 525.7C433.3 529 466.7 535 500 538.8C533.3 542.7 566.7 544.3 600 542C633.3 539.7 666.7 533.3 700 533.3C733.3 533.3 766.7 539.7 800 540C833.3 540.3 866.7 534.7 883.3 531.8L900 529L900 601L883.3 601C866.7 601 833.3 601 800 601C766.7 601 733.3 601 700 601C666.7 601 633.3 601 600 601C566.7 601 533.3 601 500 601C466.7 601 433.3 601 400 601C366.7 601 333.3 601 300 601C266.7 601 233.3 601 200 601C166.7 601 133.3 601 100 601C66.7 601 33.3 601 16.7 601L0 601Z" fill="#f7933a"></path><path d="M0 545L16.7 549.2C33.3 553.3 66.7 561.7 100 562.5C133.3 563.3 166.7 556.7 200 553.2C233.3 549.7 266.7 549.3 300 548.3C333.3 547.3 366.7 545.7 400 546.8C433.3 548 466.7 552 500 552.3C533.3 552.7 566.7 549.3 600 546.7C633.3 544 666.7 542 700 547.2C733.3 552.3 766.7 564.7 800 566.5C833.3 568.3 866.7 559.7 883.3 555.3L900 551L900 601L883.3 601C866.7 601 833.3 601 800 601C766.7 601 733.3 601 700 601C666.7 601 633.3 601 600 601C566.7 601 533.3 601 500 601C466.7 601 433.3 601 400 601C366.7 601 333.3 601 300 601C266.7 601 233.3 601 200 601C166.7 601 133.3 601 100 601C66.7 601 33.3 601 16.7 601L0 601Z" fill="#fb6117"></path></svg>